<?xml version="1.0" encoding="UTF-8" standalone="no"?>
<svg
   xmlns:dc="http://purl.org/dc/elements/1.1/"
   xmlns:cc="http://creativecommons.org/ns#"
   xmlns:rdf="http://www.w3.org/1999/02/22-rdf-syntax-ns#"
   xmlns:svg="http://www.w3.org/2000/svg"
   xmlns="http://www.w3.org/2000/svg"
   xmlns:sodipodi="http://sodipodi.sourceforge.net/DTD/sodipodi-0.dtd"
   xmlns:inkscape="http://www.inkscape.org/namespaces/inkscape"
   xml:space="preserve"
   width="60mm"
   height="60mm"
   style="shape-rendering:geometricPrecision; text-rendering:geometricPrecision; image-rendering:optimizeQuality; fill-rule:evenodd; clip-rule:evenodd"
   viewBox="0 0 60 60"
   id="svg2"
   version="1.1"
   inkscape:version="0.48.0 r9654"
   sodipodi:docname="reload.svg"
   inkscape:export-filename="/home/luis/Desktop/reload.png"
   inkscape:export-xdpi="300"
   inkscape:export-ydpi="300"><metadata
   id="metadata17"><rdf:RDF><cc:Work
       rdf:about=""><dc:format>image/svg+xml</dc:format><dc:type
         rdf:resource="http://purl.org/dc/dcmitype/StillImage" /><dc:title></dc:title></cc:Work></rdf:RDF></metadata><sodipodi:namedview
   pagecolor="#ffffff"
   bordercolor="#666666"
   borderopacity="1"
   objecttolerance="10"
   gridtolerance="10"
   guidetolerance="10"
   inkscape:pageopacity="0"
   inkscape:pageshadow="2"
   inkscape:window-width="1280"
   inkscape:window-height="723"
   id="namedview15"
   showgrid="false"
   inkscape:zoom="1.2088519"
   inkscape:cx="167.80701"
   inkscape:cy="64.521647"
   inkscape:window-x="0"
   inkscape:window-y="24"
   inkscape:window-maximized="1"
   inkscape:current-layer="svg2"
   inkscape:snap-bbox="true"
   inkscape:bbox-paths="true"
   inkscape:bbox-nodes="true"
   inkscape:snap-bbox-edge-midpoints="true"
   inkscape:snap-bbox-midpoints="true"
   inkscape:object-paths="true"
   inkscape:snap-intersection-paths="true"
   inkscape:object-nodes="true"
   inkscape:snap-smooth-nodes="true"
   inkscape:snap-center="true"
   inkscape:snap-object-midpoints="true"
   inkscape:snap-midpoints="true" />
 <defs
   id="defs4"><marker
   inkscape:stockid="Arrow1Mend"
   orient="auto"
   refY="0.0"
   refX="0.0"
   id="Arrow1Mend"
   style="overflow:visible;"><path
     id="path4025"
     d="M 0.0,0.0 L 5.0,-5.0 L -12.5,0.0 L 5.0,5.0 L 0.0,0.0 z "
     style="fill-rule:evenodd;stroke:#000000;stroke-width:1.0pt;marker-start:none;"
     transform="scale(0.4) rotate(180) translate(10,0)" /></marker><marker
   inkscape:stockid="TriangleOutS"
   orient="auto"
   refY="0.0"
   refX="0.0"
   id="TriangleOutS"
   style="overflow:visible"><path
     id="path3959"
     d="M 5.77,0.0 L -2.88,5.0 L -2.88,-5.0 L 5.77,0.0 z "
     style="fill-rule:evenodd;stroke:#000000;stroke-width:1.0pt;marker-start:none"
     transform="scale(0.2)" /></marker><marker
   inkscape:stockid="TriangleOutM"
   orient="auto"
   refY="0.0"
   refX="0.0"
   id="TriangleOutM"
   style="overflow:visible"><path
     id="path3956"
     d="M 5.77,0.0 L -2.88,5.0 L -2.88,-5.0 L 5.77,0.0 z "
     style="fill-rule:evenodd;stroke:#000000;stroke-width:1.0pt;marker-start:none"
     transform="scale(0.4)" /></marker><marker
   inkscape:stockid="Arrow2Mend"
   orient="auto"
   refY="0.0"
   refX="0.0"
   id="Arrow2Mend"
   style="overflow:visible;"><path
     id="path3837"
     style="font-size:12.0;fill-rule:evenodd;stroke-width:0.62500000;stroke-linejoin:round;"
     d="M 8.7185878,4.0337352 L -2.2072895,0.016013256 L 8.7185884,-4.0017078 C 6.9730900,-1.6296469 6.9831476,1.6157441 8.7185878,4.0337352 z "
     transform="scale(0.6) rotate(180) translate(0,0)" /></marker><marker
   inkscape:stockid="TriangleOutL"
   orient="auto"
   refY="0.0"
   refX="0.0"
   id="TriangleOutL"
   style="overflow:visible"><path
     id="path3953"
     d="M 5.77,0.0 L -2.88,5.0 L -2.88,-5.0 L 5.77,0.0 z "
     style="fill-rule:evenodd;stroke:#000000;stroke-width:1.0pt;marker-start:none"
     transform="scale(0.8)" /></marker><marker
   inkscape:stockid="Arrow2Lend"
   orient="auto"
   refY="0.0"
   refX="0.0"
   id="Arrow2Lend"
   style="overflow:visible;"><path
     id="path3831"
     style="font-size:12.0;fill-rule:evenodd;stroke-width:0.62500000;stroke-linejoin:round;"
     d="M 8.7185878,4.0337352 L -2.2072895,0.016013256 L 8.7185884,-4.0017078 C 6.9730900,-1.6296469 6.9831476,1.6157441 8.7185878,4.0337352 z "
     transform="scale(1.1) rotate(180) translate(1,0)" /></marker>
  <style
   type="text/css"
   id="style6">
   
    .str0 {stroke:#1F1A17;stroke-width:5.6444}
    .str1 {stroke:#1F1A17;stroke-width:7.0556}
    .fil0 {fill:none}
   
  </style>
 <marker
   inkscape:stockid="TriangleOutS"
   orient="auto"
   refY="0"
   refX="0"
   id="TriangleOutS-5"
   style="overflow:visible"><path
     inkscape:connector-curvature="0"
     id="path3959-0"
     d="m 5.77,0 -8.65,5 0,-10 8.65,5 z"
     style="fill-rule:evenodd;stroke:#000000;stroke-width:1pt;marker-start:none"
     transform="scale(0.2,0.2)" /></marker><marker
   inkscape:stockid="TriangleOutS"
   orient="auto"
   refY="0"
   refX="0"
   id="TriangleOutS-9"
   style="overflow:visible"><path
     inkscape:connector-curvature="0"
     id="p1"
     d="m 5.77,0 -8.65,5 0,-10 8.65,5 z"
     style="fill-rule:evenodd;stroke:#000000;stroke-width:1pt;marker-start:none"
     transform="scale(0.2,0.2)" /></marker><marker
   inkscape:stockid="TriangleOutS"
   orient="auto"
   refY="0"
   refX="0"
   id="TriangleOutS-9-8"
   style="overflow:visible"><path
     inkscape:connector-curvature="0"
     id="p1-5"
     d="m 5.77,0 -8.65,5 0,-10 8.65,5 z"
     style="fill-rule:evenodd;stroke:#000000;stroke-width:1pt;marker-start:none"
     transform="scale(0.2,0.2)" /></marker></defs>
 
<path
   style="fill:#020202"
   d="m 29.361053,59.179998 c -3.931403,-0.34152 -6.690328,-0.988 -9.734382,-2.28099 -3.717923,-1.57922 -6.720794,-3.63596 -9.550208,-6.54116 -2.0454927,-2.10028 -3.6287937,-4.27076 -4.9377107,-6.76891 -4.96212505,-9.47049 -4.39806105,-20.770765 1.482225,-29.694414 1.229482,-1.865805 2.32257,-3.182046 4.0178137,-4.8380461 4.720972,-4.611689 10.530841,-7.332232 17.414226,-8.15443001 1.129101,-0.134867 4.74361,-0.133721 5.907258,0.0019 5.475046,0.63798201 10.358083,2.54845401 14.508861,5.67654501 0.45494,0.342852 0.902255,0.677787 0.994033,0.744302 0.131726,0.09547 0.200518,0.09992 0.326647,0.02115 0.117334,-0.07328 4.308893,-3.313245 5.292478,-4.090952 0.06846,-0.05413 0.138747,-0.05655 0.188796,-0.0065 0.07901,0.07901 2.951133,20.8039651 2.951133,21.2950751 0,0.14051 -0.02847,0.25431 -0.06329,0.25287 -0.178753,-0.007 -20.054509,-8.154267 -20.079656,-8.230489 -0.01624,-0.04924 0.841241,-0.762752 1.905525,-1.585587 1.064284,-0.822835 1.984719,-1.555901 2.045417,-1.629034 0.143696,-0.173144 -0.01038,-0.299317 -1.140262,-0.933731 -2.292483,-1.287206 -4.933806,-2.147883 -7.604795,-2.4780271 -0.464141,-0.05737 -1.50846,-0.103464 -2.320708,-0.102434 -9.792402,0.01243 -18.080775,6.9771731 -19.829759,16.6630021 -0.632719,3.50398 -0.259412,7.35491 1.03853,10.71318 2.679227,6.93218 8.858732,11.79818 16.230769,12.78079 1.295929,0.17274 3.667958,0.19427 4.881168,0.0443 6.793561,-0.83971 12.445258,-4.7501 15.652454,-10.82988 0.28769,-0.54537 0.545324,-0.99158 0.572516,-0.99158 0.107617,0 7.833586,3.7361 7.943113,3.8411 0.09929,0.0952 0.04359,0.26008 -0.366176,1.08381 -2.168006,4.35826 -5.551843,8.20785 -9.70888,11.04523 -3.854384,2.63081 -8.450857,4.31141 -13.333523,4.87511 -0.801065,0.0925 -4.03792,0.17391 -4.68361,0.11782 z"
   id="path4757"
   inkscape:connector-curvature="0" /></svg>